# xmcd
#
# Track frame offsets:
#	150
#	16062
#	33806
#	48445
#	68982
#	84926
#	106759
#	127332
#	143433
#	161433
#	183766
#
# Disc length: 2633 seconds
# Revision: 0
# Processed by: cddbd v1.5.2PL0 Copyright (c) Steve Scherf et al.
# Submitted via: dBpowerAMP V12.0
#
DISCID=7e0a470b
DTITLE=Billy Crockett - Rabbit Hole
DYEAR=2016
DGENRE=Country
TTITLE0=Rabbit Hole
TTITLE1=Record Player
TTITLE2=On Your Way
TTITLE3=Drought
TTITLE4=Take Me
TTITLE5=Already Perfect
TTITLE6=Spare Me
TTITLE7=That's Something
TTITLE8=Mavis
TTITLE9=Ghosts
TTITLE10=Big Old World
EXTD=
EXTT0=
EXTT1=
EXTT2=
EXTT3=
EXTT4=
EXTT5=
EXTT6=
EXTT7=
EXTT8=
EXTT9=
EXTT10=
PLAYORDER=
